<svg xmlns="http://www.w3.org/2000/svg" xmlns:xlink="http://www.w3.org/1999/xlink" width="1029" zoomAndPan="magnify" viewBox="0 0 771.75 809.999993" height="1080" preserveAspectRatio="xMidYMid meet" version="1.0"><defs><filter x="0%" y="0%" width="100%" height="100%" id="d1802541c9"><feColorMatrix values="0 0 0 0 1 0 0 0 0 1 0 0 0 0 1 0 0 0 1 0" color-interpolation-filters="sRGB"/></filter><clipPath id="366019642e"><path d="M 0 0.132812 L 771.5 0.132812 L 771.5 809.867188 L 0 809.867188 Z M 0 0.132812 " clip-rule="nonzero"/></clipPath><clipPath id="1148cbdaed"><path d="M 0 0.132812 L 307 0.132812 L 307 308 L 0 308 Z M 0 0.132812 " clip-rule="nonzero"/></clipPath><mask id="63dea61495"><g filter="url(#d1802541c9)"><rect x="-169.785" width="1111.32" fill="#000000" y="-178.199998" height="1166.39999" fill-opacity="0.18"/></g></mask><clipPath id="f77734de9e"><path d="M 4 5 L 302 5 L 302 302 L 4 302 Z M 4 5 " clip-rule="nonzero"/></clipPath><clipPath id="0bfa1da978"><path d="M 154.171875 0.132812 L 306.769531 152.730469 L 152.382812 307.117188 L -0.214844 154.519531 Z M 154.171875 0.132812 " clip-rule="nonzero"/></clipPath><clipPath id="882be3344e"><path d="M 162.652344 8.613281 L 298.289062 144.246094 C 300.539062 146.496094 301.800781 149.546875 301.800781 152.730469 C 301.800781 155.910156 300.539062 158.964844 298.289062 161.210938 L 161.078125 298.421875 C 158.828125 300.671875 155.777344 301.9375 152.597656 301.9375 C 149.414062 301.9375 146.363281 300.671875 144.113281 298.421875 L 8.480469 162.789062 C 6.230469 160.539062 4.964844 157.488281 4.964844 154.304688 C 4.964844 151.125 6.230469 148.074219 8.480469 145.824219 L 145.6875 8.613281 C 147.9375 6.363281 150.988281 5.101562 154.171875 5.101562 C 157.351562 5.101562 160.40625 6.363281 162.652344 8.613281 Z M 162.652344 8.613281 " clip-rule="nonzero"/></clipPath><clipPath id="512e8d9136"><path d="M 0.796875 0 L 297.820312 0 L 297.820312 296.953125 L 0.796875 296.953125 Z M 0.796875 0 " clip-rule="nonzero"/></clipPath><clipPath id="abd3e7583d"><path d="M 150.171875 -4.867188 L 302.769531 147.730469 L 148.382812 302.117188 L -4.214844 149.519531 Z M 150.171875 -4.867188 " clip-rule="nonzero"/></clipPath><clipPath id="3f08e63059"><path d="M 158.652344 3.613281 L 294.289062 139.246094 C 296.539062 141.496094 297.800781 144.546875 297.800781 147.730469 C 297.800781 150.910156 296.539062 153.964844 294.289062 156.210938 L 157.078125 293.421875 C 154.828125 295.671875 151.777344 296.9375 148.597656 296.9375 C 145.414062 296.9375 142.363281 295.671875 140.113281 293.421875 L 4.480469 157.789062 C 2.230469 155.539062 0.964844 152.488281 0.964844 149.304688 C 0.964844 146.125 2.230469 143.074219 4.480469 140.824219 L 141.6875 3.613281 C 143.9375 1.363281 146.988281 0.101562 150.171875 0.101562 C 153.351562 0.101562 156.40625 1.363281 158.652344 3.613281 Z M 158.652344 3.613281 " clip-rule="nonzero"/></clipPath><clipPath id="de00fbaa1e"><rect x="0" width="298" y="0" height="297"/></clipPath><clipPath id="e96a9e15a3"><rect x="0" width="307" y="0" height="308"/></clipPath><clipPath id="664d390f4d"><path d="M 167 364 L 614 364 L 614 809.867188 L 167 809.867188 Z M 167 364 " clip-rule="nonzero"/></clipPath><mask id="3024c82a97"><g filter="url(#d1802541c9)"><rect x="-169.785" width="1111.32" fill="#000000" y="-178.199998" height="1166.39999" fill-opacity="0.18"/></g></mask><clipPath id="06083e1cf0"><path d="M 6 5 L 442 5 L 442 441 L 6 441 Z M 6 5 " clip-rule="nonzero"/></clipPath><clipPath id="cb9aab1ccc"><path d="M 281.035156 0.90625 L 446.546875 166.417969 L 166.601562 446.363281 L 1.089844 280.851562 Z M 281.035156 0.90625 " clip-rule="nonzero"/></clipPath><clipPath id="92d376ccbd"><path d="M 289.519531 9.390625 L 438.066406 157.933594 C 440.316406 160.183594 441.578125 163.234375 441.578125 166.417969 C 441.578125 169.597656 440.316406 172.652344 438.066406 174.898438 L 175.578125 437.386719 C 173.328125 439.636719 170.277344 440.898438 167.097656 440.898438 C 163.914062 440.898438 160.863281 439.636719 158.613281 437.386719 L 10.066406 288.839844 C 7.816406 286.589844 6.554688 283.539062 6.554688 280.359375 C 6.554688 277.175781 7.820312 274.125 10.066406 271.875 L 272.554688 9.390625 C 274.804688 7.140625 277.855469 5.875 281.035156 5.875 C 284.21875 5.875 287.269531 7.140625 289.519531 9.390625 Z M 289.519531 9.390625 " clip-rule="nonzero"/></clipPath><clipPath id="ca222c6985"><path d="M 0.464844 0.851562 L 435.683594 0.851562 L 435.683594 436 L 0.464844 436 Z M 0.464844 0.851562 " clip-rule="nonzero"/></clipPath><clipPath id="739e2e1e30"><path d="M 275.035156 -4.09375 L 440.546875 161.417969 L 160.601562 441.363281 L -4.910156 275.851562 Z M 275.035156 -4.09375 " clip-rule="nonzero"/></clipPath><clipPath id="d04e639006"><path d="M 283.519531 4.390625 L 432.066406 152.933594 C 434.316406 155.183594 435.578125 158.234375 435.578125 161.417969 C 435.578125 164.597656 434.316406 167.652344 432.066406 169.898438 L 169.578125 432.386719 C 167.328125 434.636719 164.277344 435.898438 161.097656 435.898438 C 157.914062 435.898438 154.863281 434.636719 152.613281 432.386719 L 4.066406 283.839844 C 1.816406 281.589844 0.554688 278.539062 0.554688 275.359375 C 0.554688 272.175781 1.820312 269.125 4.066406 266.875 L 266.554688 4.390625 C 268.804688 2.140625 271.855469 0.875 275.035156 0.875 C 278.21875 0.875 281.269531 2.140625 283.519531 4.390625 Z M 283.519531 4.390625 " clip-rule="nonzero"/></clipPath><clipPath id="c9fd81ee0e"><rect x="0" width="436" y="0" height="436"/></clipPath><clipPath id="a7709673d2"><rect x="0" width="447" y="0" height="446"/></clipPath><mask id="5f09821591"><g filter="url(#d1802541c9)"><rect x="-169.785" width="1111.32" fill="#000000" y="-178.199998" height="1166.39999" fill-opacity="0.18"/></g></mask><clipPath id="529cc35c11"><path d="M 0.964844 0.304688 L 105.28125 0.304688 L 105.28125 104.625 L 0.964844 104.625 Z M 0.964844 0.304688 " clip-rule="nonzero"/></clipPath><clipPath id="9db25a2a59"><path d="M 53.125 0.304688 C 24.316406 0.304688 0.964844 23.660156 0.964844 52.464844 C 0.964844 81.269531 24.316406 104.625 53.125 104.625 C 81.929688 104.625 105.28125 81.269531 105.28125 52.464844 C 105.28125 23.660156 81.929688 0.304688 53.125 0.304688 Z M 53.125 0.304688 " clip-rule="nonzero"/></clipPath><clipPath id="a48c98ceec"><path d="M 0.964844 0.304688 L 105.28125 0.304688 L 105.28125 104.625 L 0.964844 104.625 Z M 0.964844 0.304688 " clip-rule="nonzero"/></clipPath><clipPath id="acc0f760ae"><path d="M 53.125 0.304688 C 24.316406 0.304688 0.964844 23.660156 0.964844 52.464844 C 0.964844 81.269531 24.316406 104.625 53.125 104.625 C 81.929688 104.625 105.28125 81.269531 105.28125 52.464844 C 105.28125 23.660156 81.929688 0.304688 53.125 0.304688 Z M 53.125 0.304688 " clip-rule="nonzero"/></clipPath><clipPath id="25f1f3585f"><rect x="0" width="106" y="0" height="105"/></clipPath><clipPath id="9eefe09fab"><rect x="0" width="106" y="0" height="105"/></clipPath><mask id="31864371fe"><g filter="url(#d1802541c9)"><rect x="-169.785" width="1111.32" fill="#000000" y="-178.199998" height="1166.39999" fill-opacity="0.18"/></g></mask><clipPath id="a82ffc0512"><path d="M 0.550781 0.394531 L 104.867188 0.394531 L 104.867188 104.714844 L 0.550781 104.714844 Z M 0.550781 0.394531 " clip-rule="nonzero"/></clipPath><clipPath id="279ab346b9"><path d="M 52.707031 0.394531 C 23.902344 0.394531 0.550781 23.746094 0.550781 52.554688 C 0.550781 81.359375 23.902344 104.714844 52.707031 104.714844 C 81.515625 104.714844 104.867188 81.359375 104.867188 52.554688 C 104.867188 23.746094 81.515625 0.394531 52.707031 0.394531 Z M 52.707031 0.394531 " clip-rule="nonzero"/></clipPath><clipPath id="ec4891c3d8"><path d="M 0.550781 0.394531 L 104.867188 0.394531 L 104.867188 104.714844 L 0.550781 104.714844 Z M 0.550781 0.394531 " clip-rule="nonzero"/></clipPath><clipPath id="fd83ca4153"><path d="M 52.707031 0.394531 C 23.902344 0.394531 0.550781 23.746094 0.550781 52.554688 C 0.550781 81.359375 23.902344 104.714844 52.707031 104.714844 C 81.515625 104.714844 104.867188 81.359375 104.867188 52.554688 C 104.867188 23.746094 81.515625 0.394531 52.707031 0.394531 Z M 52.707031 0.394531 " clip-rule="nonzero"/></clipPath><clipPath id="821978d881"><rect x="0" width="105" y="0" height="105"/></clipPath><clipPath id="a09150d70c"><rect x="0" width="106" y="0" height="105"/></clipPath><clipPath id="53f92f6dd5"><path d="M 639 177 L 771.351562 177 L 771.351562 420 L 639 420 Z M 639 177 " clip-rule="nonzero"/></clipPath><mask id="117478de87"><g filter="url(#d1802541c9)"><rect x="-169.785" width="1111.32" fill="#000000" y="-178.199998" height="1166.39999" fill-opacity="0.18"/></g></mask><clipPath id="060d95c71f"><path d="M 0.183594 0.347656 L 132.304688 0.347656 L 132.304688 242.515625 L 0.183594 242.515625 Z M 0.183594 0.347656 " clip-rule="nonzero"/></clipPath><clipPath id="b315a93a1e"><rect x="0" width="133" y="0" height="243"/></clipPath><mask id="cb8f9020ba"><g filter="url(#d1802541c9)"><rect x="-169.785" width="1111.32" fill="#000000" y="-178.199998" height="1166.39999" fill-opacity="0.18"/></g></mask><clipPath id="c866d5aaa6"><path d="M 0.394531 0.167969 L 97.914062 0.167969 L 97.914062 179.242188 L 0.394531 179.242188 Z M 0.394531 0.167969 " clip-rule="nonzero"/></clipPath><clipPath id="0952b2239b"><rect x="0" width="99" y="0" height="180"/></clipPath><clipPath id="0c83515a77"><rect x="0" width="772" y="0" height="810"/></clipPath></defs><g clip-path="url(#366019642e)"><g transform="matrix(1, 0, 0, 1, 0, -0.000000000000087735)"><g clip-path="url(#0c83515a77)"><g clip-path="url(#1148cbdaed)"><g mask="url(#63dea61495)"><g transform="matrix(1, 0, 0, 1, 0, -0.000000000000087735)"><g clip-path="url(#e96a9e15a3)"><g clip-path="url(#f77734de9e)"><g clip-path="url(#0bfa1da978)"><g clip-path="url(#882be3344e)"><g transform="matrix(1, 0, 0, 1, 4, 5)"><g clip-path="url(#de00fbaa1e)"><g clip-path="url(#512e8d9136)"><g clip-path="url(#abd3e7583d)"><g clip-path="url(#3f08e63059)"><path fill="#ff3131" d="M 150.171875 -4.867188 L 302.769531 147.730469 L 148.382812 302.117188 L -4.214844 149.519531 Z M 150.171875 -4.867188 " fill-opacity="1" fill-rule="nonzero"/></g></g></g></g></g></g></g></g></g></g></g></g><g clip-path="url(#664d390f4d)"><g mask="url(#3024c82a97)"><g transform="matrix(1, 0, 0, 1, 167, 364)"><g clip-path="url(#a7709673d2)"><g clip-path="url(#06083e1cf0)"><g clip-path="url(#cb9aab1ccc)"><g clip-path="url(#92d376ccbd)"><g transform="matrix(1, 0, 0, 1, 6, 5)"><g clip-path="url(#c9fd81ee0e)"><g clip-path="url(#ca222c6985)"><g clip-path="url(#739e2e1e30)"><g clip-path="url(#d04e639006)"><path fill="#ff3131" d="M 275.035156 -4.09375 L 440.546875 161.417969 L 161.25 440.71875 L -4.261719 275.207031 Z M 275.035156 -4.09375 " fill-opacity="1" fill-rule="nonzero"/></g></g></g></g></g></g></g></g></g></g></g></g><g mask="url(#5f09821591)"><g transform="matrix(1, 0, 0, 1, 430, 154)"><g clip-path="url(#9eefe09fab)"><g clip-path="url(#529cc35c11)"><g clip-path="url(#9db25a2a59)"><g transform="matrix(1, 0, 0, 1, 0, -0.000000000000085265)"><g clip-path="url(#25f1f3585f)"><g clip-path="url(#a48c98ceec)"><g clip-path="url(#acc0f760ae)"><path fill="#ff3131" d="M 0.964844 0.304688 L 105.28125 0.304688 L 105.28125 104.625 L 0.964844 104.625 Z M 0.964844 0.304688 " fill-opacity="1" fill-rule="nonzero"/></g></g></g></g></g></g></g></g></g><g mask="url(#31864371fe)"><g transform="matrix(1, 0, 0, 1, 613, 691)"><g clip-path="url(#a09150d70c)"><g clip-path="url(#a82ffc0512)"><g clip-path="url(#279ab346b9)"><g transform="matrix(1, 0, 0, 1, 0, -0.000000000000113687)"><g clip-path="url(#821978d881)"><g clip-path="url(#ec4891c3d8)"><g clip-path="url(#fd83ca4153)"><path fill="#ff3131" d="M 0.550781 0.394531 L 104.867188 0.394531 L 104.867188 104.714844 L 0.550781 104.714844 Z M 0.550781 0.394531 " fill-opacity="1" fill-rule="nonzero"/></g></g></g></g></g></g></g></g></g><g clip-path="url(#53f92f6dd5)"><g mask="url(#117478de87)"><g transform="matrix(1, 0, 0, 1, 639, 177)"><g clip-path="url(#b315a93a1e)"><g clip-path="url(#060d95c71f)"><path fill="#ff3131" d="M 0.183594 121.410156 C 0.183594 188.265625 54.382812 242.464844 121.238281 242.464844 C 127.316406 242.464844 132.246094 237.535156 132.246094 231.460938 L 132.246094 11.359375 C 132.246094 5.28125 127.316406 0.351562 121.238281 0.351562 C 54.382812 0.351562 0.183594 54.550781 0.183594 121.410156 Z M 0.183594 121.410156 " fill-opacity="1" fill-rule="evenodd"/></g></g></g></g></g><g mask="url(#cb8f9020ba)"><g transform="matrix(1, 0, 0, 1, 13, 467)"><g clip-path="url(#0952b2239b)"><g clip-path="url(#c866d5aaa6)"><path fill="#ff3131" d="M 97.914062 89.699219 C 97.914062 40.300781 57.867188 0.253906 8.464844 0.253906 C 3.972656 0.253906 0.332031 3.894531 0.332031 8.382812 L 0.332031 171.019531 C 0.332031 175.507812 3.972656 179.148438 8.464844 179.148438 C 57.867188 179.148438 97.914062 139.101562 97.914062 89.699219 Z M 97.914062 89.699219 " fill-opacity="1" fill-rule="evenodd"/></g></g></g></g></g></g></g></svg>