<svg xmlns="http://www.w3.org/2000/svg" xmlns:xlink="http://www.w3.org/1999/xlink" width="1043" zoomAndPan="magnify" viewBox="0 0 782.25 772.499976" height="1030" preserveAspectRatio="xMidYMid meet" version="1.0"><defs><filter x="0%" y="0%" width="100%" height="100%" id="7218064123"><feColorMatrix values="0 0 0 0 1 0 0 0 0 1 0 0 0 0 1 0 0 0 1 0" color-interpolation-filters="sRGB"/></filter><clipPath id="e3fad7f8ab"><path d="M 46 0.121094 L 339 0.121094 L 339 293 L 46 293 Z M 46 0.121094 " clip-rule="nonzero"/></clipPath><mask id="3a08fa2d32"><g filter="url(#7218064123)"><rect x="-78.225" width="938.7" fill="#000000" y="-77.249998" height="926.999971" fill-opacity="0.18"/></g></mask><clipPath id="6ec350a2ce"><path d="M 5 5 L 288 5 L 288 288 L 5 288 Z M 5 5 " clip-rule="nonzero"/></clipPath><clipPath id="6708c3b306"><path d="M 147.375 0.121094 L 292.765625 145.507812 L 145.671875 292.601562 L 0.285156 147.210938 Z M 147.375 0.121094 " clip-rule="nonzero"/></clipPath><clipPath id="46ad91b769"><path d="M 155.855469 8.597656 L 284.289062 137.03125 C 288.96875 141.714844 288.96875 149.304688 284.289062 153.984375 L 154.351562 283.921875 C 149.671875 288.605469 142.082031 288.605469 137.398438 283.921875 L 8.964844 155.488281 C 4.28125 150.804688 4.28125 143.214844 8.964844 138.53125 L 138.898438 8.597656 C 143.582031 3.914062 151.171875 3.914062 155.855469 8.597656 Z M 155.855469 8.597656 " clip-rule="nonzero"/></clipPath><clipPath id="38bba37447"><path d="M 0 0 L 283 0 L 283 283 L 0 283 Z M 0 0 " clip-rule="nonzero"/></clipPath><clipPath id="f1b0a7bb88"><path d="M 142.375 -4.878906 L 287.765625 140.507812 L 140.671875 287.601562 L -4.714844 142.210938 Z M 142.375 -4.878906 " clip-rule="nonzero"/></clipPath><clipPath id="05eaa86747"><path d="M 150.855469 3.597656 L 279.289062 132.03125 C 283.96875 136.714844 283.96875 144.304688 279.289062 148.984375 L 149.351562 278.921875 C 144.671875 283.605469 137.082031 283.605469 132.398438 278.921875 L 3.964844 150.488281 C -0.71875 145.804688 -0.71875 138.214844 3.964844 133.53125 L 133.898438 3.597656 C 138.582031 -1.085938 146.171875 -1.085938 150.855469 3.597656 Z M 150.855469 3.597656 " clip-rule="nonzero"/></clipPath><clipPath id="d4f1b71e79"><rect x="0" width="283" y="0" height="283"/></clipPath><clipPath id="640ad73ad0"><rect x="0" width="293" y="0" height="293"/></clipPath><clipPath id="70419bb48f"><path d="M 206 347 L 632 347 L 632 771.878906 L 206 771.878906 Z M 206 347 " clip-rule="nonzero"/></clipPath><mask id="b89f9a69bb"><g filter="url(#7218064123)"><rect x="-78.225" width="938.7" fill="#000000" y="-77.249998" height="926.999971" fill-opacity="0.18"/></g></mask><clipPath id="ccfd9c3110"><path d="M 6 5 L 421 5 L 421 420 L 6 420 Z M 6 5 " clip-rule="nonzero"/></clipPath><clipPath id="04ec9eeace"><path d="M 267.355469 0.660156 L 425.046875 158.351562 L 158.328125 425.070312 L 0.636719 267.378906 Z M 267.355469 0.660156 " clip-rule="nonzero"/></clipPath><clipPath id="eba891dee7"><path d="M 275.835938 9.136719 L 416.570312 149.875 C 421.253906 154.554688 421.253906 162.144531 416.570312 166.828125 L 167.277344 416.121094 C 162.59375 420.800781 155.003906 420.804688 150.324219 416.121094 L 9.585938 275.386719 C 4.90625 270.703125 4.90625 263.113281 9.585938 258.429688 L 258.878906 9.136719 C 263.5625 4.457031 271.152344 4.457031 275.835938 9.136719 Z M 275.835938 9.136719 " clip-rule="nonzero"/></clipPath><clipPath id="6a4323eb67"><path d="M 0 0 L 415 0 L 415 415 L 0 415 Z M 0 0 " clip-rule="nonzero"/></clipPath><clipPath id="548b028a62"><path d="M 261.355469 -4.339844 L 419.046875 153.351562 L 152.328125 420.070312 L -5.363281 262.378906 Z M 261.355469 -4.339844 " clip-rule="nonzero"/></clipPath><clipPath id="42eea52f92"><path d="M 269.835938 4.136719 L 410.570312 144.875 C 415.253906 149.554688 415.253906 157.144531 410.570312 161.828125 L 161.277344 411.121094 C 156.59375 415.800781 149.003906 415.804688 144.324219 411.121094 L 3.585938 270.386719 C -1.09375 265.703125 -1.09375 258.113281 3.585938 253.429688 L 252.878906 4.136719 C 257.5625 -0.542969 265.152344 -0.542969 269.835938 4.136719 Z M 269.835938 4.136719 " clip-rule="nonzero"/></clipPath><clipPath id="12b8c8c362"><rect x="0" width="415" y="0" height="415"/></clipPath><clipPath id="13ec3c5447"><rect x="0" width="426" y="0" height="425"/></clipPath><mask id="e81c5f3677"><g filter="url(#7218064123)"><rect x="-78.225" width="938.7" fill="#000000" y="-77.249998" height="926.999971" fill-opacity="0.18"/></g></mask><clipPath id="2712dcaaff"><path d="M 0.09375 1.011719 L 99.480469 1.011719 L 99.480469 100.398438 L 0.09375 100.398438 Z M 0.09375 1.011719 " clip-rule="nonzero"/></clipPath><clipPath id="92e2f496a8"><path d="M 49.785156 1.011719 C 22.339844 1.011719 0.09375 23.257812 0.09375 50.703125 C 0.09375 78.148438 22.339844 100.398438 49.785156 100.398438 C 77.230469 100.398438 99.480469 78.148438 99.480469 50.703125 C 99.480469 23.257812 77.230469 1.011719 49.785156 1.011719 Z M 49.785156 1.011719 " clip-rule="nonzero"/></clipPath><clipPath id="f499943127"><path d="M 0.09375 0.0117188 L 99.480469 0.0117188 L 99.480469 99.398438 L 0.09375 99.398438 Z M 0.09375 0.0117188 " clip-rule="nonzero"/></clipPath><clipPath id="3afe2b7e33"><path d="M 49.785156 0.0117188 C 22.339844 0.0117188 0.09375 22.257812 0.09375 49.703125 C 0.09375 77.148438 22.339844 99.398438 49.785156 99.398438 C 77.230469 99.398438 99.480469 77.148438 99.480469 49.703125 C 99.480469 22.257812 77.230469 0.0117188 49.785156 0.0117188 Z M 49.785156 0.0117188 " clip-rule="nonzero"/></clipPath><clipPath id="83989f4202"><rect x="0" width="100" y="0" height="100"/></clipPath><clipPath id="5689cd448d"><rect x="0" width="100" y="0" height="101"/></clipPath><mask id="895f590d1e"><g filter="url(#7218064123)"><rect x="-78.225" width="938.7" fill="#000000" y="-77.249998" height="926.999971" fill-opacity="0.18"/></g></mask><clipPath id="ba98c7f802"><path d="M 1.050781 0.722656 L 100.4375 0.722656 L 100.4375 100.109375 L 1.050781 100.109375 Z M 1.050781 0.722656 " clip-rule="nonzero"/></clipPath><clipPath id="7bf27427ba"><path d="M 50.742188 0.722656 C 23.296875 0.722656 1.050781 22.972656 1.050781 50.417969 C 1.050781 77.863281 23.296875 100.109375 50.742188 100.109375 C 78.1875 100.109375 100.4375 77.863281 100.4375 50.417969 C 100.4375 22.972656 78.1875 0.722656 50.742188 0.722656 Z M 50.742188 0.722656 " clip-rule="nonzero"/></clipPath><clipPath id="28d2889bf1"><path d="M 0.0507812 0.722656 L 99.4375 0.722656 L 99.4375 100.109375 L 0.0507812 100.109375 Z M 0.0507812 0.722656 " clip-rule="nonzero"/></clipPath><clipPath id="e7a8c43975"><path d="M 49.742188 0.722656 C 22.296875 0.722656 0.0507812 22.972656 0.0507812 50.417969 C 0.0507812 77.863281 22.296875 100.109375 49.742188 100.109375 C 77.1875 100.109375 99.4375 77.863281 99.4375 50.417969 C 99.4375 22.972656 77.1875 0.722656 49.742188 0.722656 Z M 49.742188 0.722656 " clip-rule="nonzero"/></clipPath><clipPath id="228b3e0653"><rect x="0" width="100" y="0" height="101"/></clipPath><clipPath id="df353c5c87"><rect x="0" width="101" y="0" height="101"/></clipPath><clipPath id="f973196bc4"><path d="M 655 168 L 781.5 168 L 781.5 400 L 655 400 Z M 655 168 " clip-rule="nonzero"/></clipPath><mask id="d988775a71"><g filter="url(#7218064123)"><rect x="-78.225" width="938.7" fill="#000000" y="-77.249998" height="926.999971" fill-opacity="0.18"/></g></mask><clipPath id="06cba79c46"><path d="M 0.472656 0.960938 L 126.351562 0.960938 L 126.351562 231.738281 L 0.472656 231.738281 Z M 0.472656 0.960938 " clip-rule="nonzero"/></clipPath><clipPath id="ae19d4ceea"><rect x="0" width="127" y="0" height="232"/></clipPath><mask id="3dae7b3fbd"><g filter="url(#7218064123)"><rect x="-78.225" width="938.7" fill="#000000" y="-77.249998" height="926.999971" fill-opacity="0.18"/></g></mask><clipPath id="c413cda709"><path d="M 0.0625 0.09375 L 92.972656 0.09375 L 92.972656 170.726562 L 0.0625 170.726562 Z M 0.0625 0.09375 " clip-rule="nonzero"/></clipPath><clipPath id="b689938f98"><rect x="0" width="94" y="0" height="171"/></clipPath></defs><g clip-path="url(#e3fad7f8ab)"><g mask="url(#3a08fa2d32)"><g transform="matrix(1, 0, 0, 1, 46, 0.000000000000116795)"><g clip-path="url(#640ad73ad0)"><g clip-path="url(#6ec350a2ce)"><g clip-path="url(#6708c3b306)"><g clip-path="url(#46ad91b769)"><g transform="matrix(1, 0, 0, 1, 5, 5)"><g clip-path="url(#d4f1b71e79)"><g clip-path="url(#38bba37447)"><g clip-path="url(#f1b0a7bb88)"><g clip-path="url(#05eaa86747)"><path fill="#ff3131" d="M 142.375 -4.878906 L 287.765625 140.507812 L 140.671875 287.601562 L -4.714844 142.210938 Z M 142.375 -4.878906 " fill-opacity="1" fill-rule="nonzero"/></g></g></g></g></g></g></g></g></g></g></g></g><g clip-path="url(#70419bb48f)"><g mask="url(#b89f9a69bb)"><g transform="matrix(1, 0, 0, 1, 206, 347)"><g clip-path="url(#13ec3c5447)"><g clip-path="url(#ccfd9c3110)"><g clip-path="url(#04ec9eeace)"><g clip-path="url(#eba891dee7)"><g transform="matrix(1, 0, 0, 1, 6, 5)"><g clip-path="url(#12b8c8c362)"><g clip-path="url(#6a4323eb67)"><g clip-path="url(#548b028a62)"><g clip-path="url(#42eea52f92)"><path fill="#ff3131" d="M 261.355469 -4.339844 L 419.046875 153.351562 L 152.945312 419.453125 L -4.746094 261.761719 Z M 261.355469 -4.339844 " fill-opacity="1" fill-rule="nonzero"/></g></g></g></g></g></g></g></g></g></g></g></g><g mask="url(#e81c5f3677)"><g transform="matrix(1, 0, 0, 1, 457, 146)"><g clip-path="url(#5689cd448d)"><g clip-path="url(#2712dcaaff)"><g clip-path="url(#92e2f496a8)"><g transform="matrix(1, 0, 0, 1, -0.000000000000113687, 1)"><g clip-path="url(#83989f4202)"><g clip-path="url(#f499943127)"><g clip-path="url(#3afe2b7e33)"><path fill="#ff3131" d="M 0.09375 0.0117188 L 99.480469 0.0117188 L 99.480469 99.398438 L 0.09375 99.398438 Z M 0.09375 0.0117188 " fill-opacity="1" fill-rule="nonzero"/></g></g></g></g></g></g></g></g></g><g mask="url(#895f590d1e)"><g transform="matrix(1, 0, 0, 1, 630, 658)"><g clip-path="url(#df353c5c87)"><g clip-path="url(#ba98c7f802)"><g clip-path="url(#7bf27427ba)"><g transform="matrix(1, 0, 0, 1, 1, 0)"><g clip-path="url(#228b3e0653)"><g clip-path="url(#28d2889bf1)"><g clip-path="url(#e7a8c43975)"><path fill="#ff3131" d="M 0.0507812 0.722656 L 99.4375 0.722656 L 99.4375 100.109375 L 0.0507812 100.109375 Z M 0.0507812 0.722656 " fill-opacity="1" fill-rule="nonzero"/></g></g></g></g></g></g></g></g></g><g clip-path="url(#f973196bc4)"><g mask="url(#d988775a71)"><g transform="matrix(1, 0, 0, 1, 655, 168)"><g clip-path="url(#ae19d4ceea)"><g clip-path="url(#06cba79c46)"><path fill="#ff3131" d="M 0.472656 116.304688 C 0.472656 180.003906 52.109375 231.640625 115.808594 231.640625 C 121.597656 231.640625 126.292969 226.945312 126.292969 221.15625 L 126.292969 11.453125 C 126.292969 5.664062 121.597656 0.96875 115.808594 0.96875 C 52.109375 0.96875 0.472656 52.605469 0.472656 116.304688 Z M 0.472656 116.304688 " fill-opacity="1" fill-rule="evenodd"/></g></g></g></g></g><g mask="url(#3dae7b3fbd)"><g transform="matrix(1, 0, 0, 1, 0, 448)"><g clip-path="url(#b689938f98)"><g clip-path="url(#c413cda709)"><path fill="#ff3131" d="M 92.972656 85.394531 C 92.972656 38.328125 54.816406 0.171875 7.75 0.171875 C 3.472656 0.171875 0.00390625 3.640625 0.00390625 7.921875 L 0.00390625 162.871094 C 0.00390625 167.148438 3.472656 170.617188 7.75 170.617188 C 54.816406 170.617188 92.972656 132.460938 92.972656 85.394531 Z M 92.972656 85.394531 " fill-opacity="1" fill-rule="evenodd"/></g></g></g></g></svg>